<svg version="1.1" id="Layer_1" xmlns="http://www.w3.org/2000/svg" xmlns:xlink="http://www.w3.org/1999/xlink" x="0px" y="0px"
	 width="100%" viewBox="0 0 151 143" enable-background="new 0 0 151 143" xml:space="preserve">
<path fill="#FEFEFE" opacity="1.000000" stroke="none" 
	d="
M94.000000,144.000000 
	C62.666668,144.000000 31.833334,144.000000 1.000000,144.000000 
	C1.000000,96.333336 1.000000,48.666668 1.000000,1.000000 
	C51.333332,1.000000 101.666664,1.000000 152.000000,1.000000 
	C152.000000,48.666668 152.000000,96.333336 152.000000,144.000000 
	C132.833328,144.000000 113.666664,144.000000 94.000000,144.000000 
M61.561527,135.042099 
	C106.772377,145.375107 147.476990,108.056282 141.153687,62.070396 
	C136.615143,29.064035 106.586517,4.302789 73.410599,6.210236 
	C38.840267,8.197855 11.728112,36.121796 11.155965,70.328888 
	C10.649080,100.634079 29.834150,125.623238 61.561527,135.042099 
z"/>
<path fill="#4C4C4D" opacity="1.000000" stroke="none" 
	d="
M61.151085,134.978302 
	C29.834150,125.623238 10.649080,100.634079 11.155965,70.328888 
	C11.728112,36.121796 38.840267,8.197855 73.410599,6.210236 
	C106.586517,4.302789 136.615143,29.064035 141.153687,62.070396 
	C147.476990,108.056282 106.772377,145.375107 61.151085,134.978302 
M63.123318,24.439022 
	C52.999218,30.453680 49.306767,40.966236 53.916618,50.786110 
	C56.878548,57.095589 62.481747,60.275032 68.462807,63.077923 
	C72.814461,65.117226 77.320374,67.039856 81.183182,69.814163 
	C82.938377,71.074768 84.400085,74.491722 83.990639,76.527390 
	C83.580559,78.566177 80.945717,80.984192 78.794357,81.651939 
	C75.580330,82.649529 71.766365,83.017456 68.512093,82.290390 
	C63.013042,81.061798 57.752274,78.766663 52.322784,76.896370 
	C52.322784,80.568558 51.996098,84.440628 52.472015,88.211403 
	C52.683697,89.888603 54.202473,92.291466 55.658676,92.778641 
	C66.342804,96.353012 77.231018,96.788101 88.026878,93.234879 
	C95.828583,90.667107 100.580681,85.261681 101.553329,76.942963 
	C102.528137,68.605766 99.770988,61.777527 92.629768,57.167656 
	C89.294891,55.014893 85.572067,53.466393 82.042114,51.611584 
	C78.810066,49.913311 75.335609,48.527237 72.441154,46.368999 
	C67.554459,42.725235 68.170860,36.854424 73.956985,35.255753 
	C78.565987,33.982323 83.769234,34.285191 88.635162,34.716930 
	C91.911972,35.007664 95.060699,36.741844 98.590874,37.940331 
	C98.590874,33.960133 98.434807,30.457129 98.641273,26.975626 
	C98.800491,24.290953 97.734192,23.069307 95.186188,22.510138 
	C84.565445,20.179384 74.072083,19.806967 63.123318,24.439022 
z"/>
<path fill="#FBFBFB" opacity="1.000000" stroke="none" 
	d="
M63.461174,24.268139 
	C74.072083,19.806967 84.565445,20.179384 95.186188,22.510138 
	C97.734192,23.069307 98.800491,24.290953 98.641273,26.975626 
	C98.434807,30.457129 98.590874,33.960133 98.590874,37.940331 
	C95.060699,36.741844 91.911972,35.007664 88.635162,34.716930 
	C83.769234,34.285191 78.565987,33.982323 73.956985,35.255753 
	C68.170860,36.854424 67.554459,42.725235 72.441154,46.368999 
	C75.335609,48.527237 78.810066,49.913311 82.042114,51.611584 
	C85.572067,53.466393 89.294891,55.014893 92.629768,57.167656 
	C99.770988,61.777527 102.528137,68.605766 101.553329,76.942963 
	C100.580681,85.261681 95.828583,90.667107 88.026878,93.234879 
	C77.231018,96.788101 66.342804,96.353012 55.658676,92.778641 
	C54.202473,92.291466 52.683697,89.888603 52.472015,88.211403 
	C51.996098,84.440628 52.322784,80.568558 52.322784,76.896370 
	C57.752274,78.766663 63.013042,81.061798 68.512093,82.290390 
	C71.766365,83.017456 75.580330,82.649529 78.794357,81.651939 
	C80.945717,80.984192 83.580559,78.566177 83.990639,76.527390 
	C84.400085,74.491722 82.938377,71.074768 81.183182,69.814163 
	C77.320374,67.039856 72.814461,65.117226 68.462807,63.077923 
	C62.481747,60.275032 56.878548,57.095589 53.916618,50.786110 
	C49.306767,40.966236 52.999218,30.453680 63.461174,24.268139 
z"/>
</svg>